<svg width="288" height="206" viewBox="0 0 288 206" fill="none" xmlns="http://www.w3.org/2000/svg">
<path d="M68.3523 74.3787C69.6573 87.726 73.3811 99.9685 79.5461 111.073C79.7373 111.276 79.8611 111.513 79.9173 111.761C83.056 117.296 86.8135 122.56 91.1672 127.52C103.036 141.048 116.817 148.995 125.065 152.93C115.052 141.465 108.741 128.095 106.255 112.922C102.914 92.5295 106.941 71.3366 113.399 52.6908V52.6795C101.103 30.7533 80.8749 21.3618 75.0487 19.0415C69.0862 38.7129 66.836 56.841 68.2648 73.2993C68.4223 73.6375 68.456 74.0208 68.3548 74.3815L68.3523 74.3787Z" fill="url(#paint0_linear_6317_11151)" fill-opacity="0.15"/>
<path d="M73.3611 106.011C69.3898 97.1507 66.3748 86.7906 65.1937 74.7627C51.9862 56.7709 27.9782 48.9025 21.0604 46.9409C20.0479 62.5314 23.7942 78.0653 24.8629 82.0912C46.1479 86.9724 64.3265 99.1232 73.3611 106.011Z" fill="url(#paint1_linear_6317_11151)" fill-opacity="0.15"/>
<path d="M33.355 137.915C33.4675 137.982 33.5575 138.072 33.6362 138.163C58.8924 160.968 92.6649 168.972 134.258 162.005C133.167 161.069 132.098 160.122 131.074 159.142L131.063 159.13C127.947 158.071 106.594 150.146 88.7181 129.876C84.6567 125.265 80.6293 119.798 77.0517 113.384C74.723 111.332 37.8347 79.7457 0 83.6907C1.74376 89.9133 8.51619 110.949 25.3464 129.819C27.9114 132.694 30.5763 135.401 33.355 137.915Z" fill="url(#paint2_linear_6317_11151)" fill-opacity="0.15"/>
<path d="M109.598 112.38C112.399 129.492 120.319 144.26 133.144 156.468C135.068 158.283 137.093 160.03 139.23 161.743C140.772 162.972 142.347 164.156 144 165.306C145.654 164.156 147.229 162.961 148.77 161.743C150.908 160.03 152.933 158.283 154.856 156.468C167.681 144.27 175.601 129.502 178.403 112.38C186.345 63.9948 151.335 10.5393 144.001 0C136.666 10.5402 101.655 63.9977 109.598 112.38Z" fill="url(#paint3_linear_6317_11151)" fill-opacity="0.15"/>
<path d="M199.281 129.874C181.405 150.154 160.053 158.068 156.948 159.128L156.937 159.139C155.913 160.098 154.844 161.067 153.753 162.003C199.519 169.623 237.149 158.508 262.756 129.707C279.529 110.847 286.268 89.9015 288 83.6911C250.154 79.7342 213.279 111.332 210.949 113.384C207.382 119.799 203.343 125.263 199.281 129.874Z" fill="url(#paint4_linear_6317_11151)" fill-opacity="0.15"/>
<path d="M263.136 82.0897C264.194 78.0653 267.951 62.5311 266.939 46.9395C260.02 48.901 236.013 56.7694 222.805 74.7612V74.7725C221.613 86.8009 218.598 97.1495 214.638 106.009C223.672 99.1217 241.851 86.9709 263.136 82.0897Z" fill="url(#paint5_linear_6317_11151)" fill-opacity="0.15"/>
<path d="M181.741 112.922C179.255 128.084 172.955 141.454 162.943 152.918C171.2 148.983 184.959 141.047 196.829 127.519C201.194 122.559 204.929 117.306 208.079 111.76V111.749C208.135 111.501 208.27 111.264 208.461 111.061C214.626 99.9568 218.35 87.7258 219.644 74.4128C219.542 74.0408 219.576 73.6237 219.756 73.263V73.2404C221.174 56.7818 218.912 38.6876 212.961 19.0288C207.122 21.3623 186.872 30.7753 174.599 52.6668V52.6781C181.057 71.3349 185.082 92.5302 181.741 112.922Z" fill="url(#paint6_linear_6317_11151)" fill-opacity="0.15"/>
<path d="M256.308 140.944C240.288 155.137 216.135 167.763 180.921 167.763C171.505 167.763 161.324 166.872 150.287 164.855C148.925 165.925 147.53 166.974 146.09 167.988C183.093 194.942 229.003 175.71 229.475 175.519C230.319 175.147 231.332 175.541 231.703 176.398C232.063 177.255 231.669 178.269 230.814 178.63C230.533 178.754 213.928 185.732 192.452 185.732C177.4 185.732 159.928 182.305 143.999 170.66C128.08 182.305 110.608 185.732 95.5458 185.732C74.0696 185.732 57.475 178.754 57.1841 178.63C56.3291 178.269 55.9241 177.255 56.3066 176.398C56.6779 175.541 57.6791 175.136 58.5341 175.519C59.0066 175.71 104.917 194.942 141.907 167.988C140.467 166.974 139.072 165.925 137.711 164.855C126.675 166.872 116.482 167.763 107.077 167.763C71.8628 167.763 47.711 155.137 31.6896 140.944C19.6632 139.637 6.00564 142.173 0.628662 143.334C27.3137 183.364 60.1872 205.009 95.8158 205.967C123.21 206.7 142.887 194.953 143.077 194.829C143.313 194.682 143.572 194.604 143.819 194.592C143.932 194.581 144.044 194.581 144.157 194.592C144.404 194.604 144.663 194.682 144.899 194.829C145.09 194.953 164.744 206.7 192.16 205.967C227.789 205.009 260.661 183.353 287.347 143.334C281.981 142.162 268.345 139.637 256.308 140.944Z" fill="url(#paint7_linear_6317_11151)" fill-opacity="0.15"/>
<defs>
<linearGradient id="paint0_linear_6317_11151" x1="96.4569" y1="19.0415" x2="96.4569" y2="152.93" gradientUnits="userSpaceOnUse">
<stop stop-color="#F88A0C"/>
<stop offset="1" stop-color="#FFE100"/>
</linearGradient>
<linearGradient id="paint1_linear_6317_11151" x1="47.1254" y1="46.9409" x2="47.1254" y2="106.013" gradientUnits="userSpaceOnUse">
<stop stop-color="#F88A0C"/>
<stop offset="1" stop-color="#FFE100"/>
</linearGradient>
<linearGradient id="paint2_linear_6317_11151" x1="67.129" y1="83.3501" x2="67.129" y2="164.439" gradientUnits="userSpaceOnUse">
<stop stop-color="#F88A0C"/>
<stop offset="1" stop-color="#FFE100"/>
</linearGradient>
<linearGradient id="paint3_linear_6317_11151" x1="144.001" y1="0" x2="144.001" y2="165.306" gradientUnits="userSpaceOnUse">
<stop stop-color="#F88A0C"/>
<stop offset="1" stop-color="#FFE100"/>
</linearGradient>
<linearGradient id="paint4_linear_6317_11151" x1="220.877" y1="83.3486" x2="220.877" y2="164.336" gradientUnits="userSpaceOnUse">
<stop stop-color="#F88A0C"/>
<stop offset="1" stop-color="#FFE100"/>
</linearGradient>
<linearGradient id="paint5_linear_6317_11151" x1="240.874" y1="46.9395" x2="240.874" y2="106.009" gradientUnits="userSpaceOnUse">
<stop stop-color="#F88A0C"/>
<stop offset="1" stop-color="#FFE100"/>
</linearGradient>
<linearGradient id="paint6_linear_6317_11151" x1="191.554" y1="19.0288" x2="191.554" y2="152.918" gradientUnits="userSpaceOnUse">
<stop stop-color="#F88A0C"/>
<stop offset="1" stop-color="#FFE100"/>
</linearGradient>
<linearGradient id="paint7_linear_6317_11151" x1="143.988" y1="140.578" x2="143.988" y2="206" gradientUnits="userSpaceOnUse">
<stop stop-color="#F88A0C"/>
<stop offset="1" stop-color="#FFE100"/>
</linearGradient>
</defs>
</svg>
