<svg width="100" height="58" viewBox="0 0 100 58" fill="none" xmlns="http://www.w3.org/2000/svg">
<path d="M23.7334 25.7732C24.1865 30.3982 25.4795 34.6404 27.6201 38.4882C27.6865 38.5585 27.7295 38.6405 27.749 38.7264C28.8388 40.6444 30.1435 42.4687 31.6552 44.1874C35.7763 48.8749 40.5614 51.6287 43.4252 52.9921C39.9486 49.0193 37.7572 44.3866 36.894 39.1291C35.7338 32.0627 37.1323 24.719 39.3745 18.258V18.2541C35.105 10.6564 28.0815 7.40214 26.0585 6.59814C23.9882 13.4145 23.2069 19.6961 23.703 25.3991C23.7577 25.5163 23.7694 25.6491 23.7343 25.7741L23.7334 25.7732Z" fill="url(#paint0_linear_6086_8160)"/>
<path d="M25.4725 36.7342C24.0936 33.6639 23.0467 30.074 22.6366 25.9062C18.0507 19.6718 9.71461 16.9453 7.31261 16.2656C6.96105 21.6679 8.26183 27.0506 8.63291 28.4456C16.0235 30.137 22.3355 34.3474 25.4725 36.7342Z" fill="url(#paint1_linear_6086_8160)"/>
<path d="M11.5815 47.7891C11.6206 47.8125 11.6519 47.8438 11.6792 47.875C20.4487 55.7773 32.1752 58.5511 46.6172 56.1368C46.2383 55.8125 45.8672 55.4844 45.5117 55.1446L45.5078 55.1407C44.4258 54.7735 37.0117 52.0274 30.8048 45.0037C29.3946 43.406 27.9962 41.5115 26.754 39.2889C25.9454 38.5779 13.137 27.6329 0 28.9999C0.60547 31.1561 2.957 38.4452 8.8008 44.9839C9.69142 45.9799 10.6167 46.918 11.5815 47.7891Z" fill="url(#paint2_linear_6086_8160)"/>
<path d="M38.0546 38.941C39.0272 44.8707 41.7773 49.988 46.2304 54.218C46.8983 54.8469 47.6015 55.4524 48.3437 56.0461C48.8788 56.4719 49.4257 56.882 49.9999 57.2805C50.5741 56.8821 51.121 56.468 51.6561 56.0461C52.3983 55.4524 53.1014 54.8469 53.7694 54.218C58.2225 49.9914 60.9725 44.8742 61.9452 38.941C64.703 22.175 52.5468 3.652 50.0002 0C47.4533 3.6523 35.2966 22.176 38.0546 38.941Z" fill="url(#paint3_linear_6086_8160)"/>
<path d="M69.1946 45.0029C62.9876 52.0302 55.5736 54.7724 54.4956 55.1399L54.4917 55.1438C54.1363 55.4758 53.7652 55.8118 53.3862 56.136C69.2772 58.7766 82.3432 54.9251 91.2342 44.945C97.0584 38.4098 99.3983 31.152 99.9998 29C86.8588 27.6289 74.0548 38.5781 73.2458 39.289C72.0075 41.5117 70.6048 43.4053 69.1946 45.0029Z" fill="url(#paint4_linear_6086_8160)"/>
<path d="M91.3665 28.4451C91.7336 27.0506 93.0384 21.6678 92.6868 16.2651C90.2845 16.9448 81.9488 19.6713 77.3628 25.9057V25.9096C76.9487 30.0776 75.9019 33.6635 74.5269 36.7336C77.6636 34.3469 83.9757 30.1365 91.3665 28.4451Z" fill="url(#paint5_linear_6086_8160)"/>
<path d="M63.1044 39.1289C62.2412 44.3828 60.0536 49.0156 56.5771 52.9879C59.4443 51.6246 64.2216 48.8746 68.3431 44.1871C69.8587 42.4683 71.1556 40.648 72.2493 38.7262V38.7223C72.2689 38.6363 72.3158 38.5543 72.3822 38.484C74.5228 34.6363 75.8158 30.3981 76.265 25.785C76.2298 25.6561 76.2415 25.5116 76.304 25.3866V25.3787C76.7962 19.6756 76.0111 13.4057 73.9446 6.59375C71.9173 7.40234 64.886 10.664 60.6246 18.2497V18.2537C62.8668 24.7185 64.2645 32.0629 63.1044 39.1289Z" fill="url(#paint6_linear_6086_8160)"/>
<path d="M88.9957 48.8388C83.4332 53.7568 75.0467 58.1318 62.8197 58.1318C59.5502 58.1318 56.015 57.8232 52.1827 57.124C51.71 57.4951 51.2256 57.8584 50.7257 58.2099C63.5737 67.5497 79.5147 60.8857 79.6787 60.8193C79.9716 60.6904 80.3232 60.8271 80.4521 61.124C80.5771 61.4209 80.4404 61.7724 80.1435 61.8974C80.0459 61.9404 74.2802 64.3583 66.8235 64.3583C61.5969 64.3583 55.5305 63.1708 49.9995 59.1356C44.4722 63.1708 38.4055 64.3583 33.1755 64.3583C25.7185 64.3583 19.9565 61.9403 19.8555 61.8974C19.5586 61.7724 19.418 61.4209 19.5508 61.124C19.6797 60.8271 20.0274 60.6865 20.3243 60.8193C20.4883 60.8857 36.4293 67.5498 49.2733 58.2099C48.7733 57.8583 48.2889 57.4951 47.8163 57.124C43.9843 57.8232 40.4452 58.1318 37.1793 58.1318C24.9523 58.1318 16.5663 53.7568 11.0033 48.8388C6.82746 48.3857 2.08526 49.2646 0.218262 49.6669C9.48386 63.5379 20.8983 71.0379 33.2693 71.3699C42.781 71.6238 49.6133 67.5535 49.6793 67.5105C49.7613 67.4597 49.8511 67.4324 49.9371 67.4285C49.9761 67.4246 50.0152 67.4246 50.0543 67.4285C50.1402 67.4324 50.23 67.4597 50.3121 67.5105C50.3785 67.5535 57.2027 71.6238 66.7221 71.3699C79.0931 71.0379 90.5071 63.534 99.7731 49.6669C97.9098 49.2607 93.175 48.3857 88.9957 48.8388Z" fill="url(#paint7_linear_6086_8160)"/>
<defs>
<linearGradient id="paint0_linear_6086_8160" x1="33.4919" y1="6.59814" x2="33.4919" y2="52.9921" gradientUnits="userSpaceOnUse">
<stop stop-color="#F88A0C"/>
<stop offset="1" stop-color="#FFE100"/>
</linearGradient>
<linearGradient id="paint1_linear_6086_8160" x1="16.3629" y1="16.2656" x2="16.3629" y2="36.7347" gradientUnits="userSpaceOnUse">
<stop stop-color="#F88A0C"/>
<stop offset="1" stop-color="#FFE100"/>
</linearGradient>
<linearGradient id="paint2_linear_6086_8160" x1="23.3086" y1="28.8818" x2="23.3086" y2="56.9801" gradientUnits="userSpaceOnUse">
<stop stop-color="#F88A0C"/>
<stop offset="1" stop-color="#FFE100"/>
</linearGradient>
<linearGradient id="paint3_linear_6086_8160" x1="50.0001" y1="0" x2="50.0001" y2="57.2805" gradientUnits="userSpaceOnUse">
<stop stop-color="#F88A0C"/>
<stop offset="1" stop-color="#FFE100"/>
</linearGradient>
<linearGradient id="paint4_linear_6086_8160" x1="76.693" y1="28.8813" x2="76.693" y2="56.9446" gradientUnits="userSpaceOnUse">
<stop stop-color="#F88A0C"/>
<stop offset="1" stop-color="#FFE100"/>
</linearGradient>
<linearGradient id="paint5_linear_6086_8160" x1="83.6366" y1="16.2651" x2="83.6366" y2="36.7336" gradientUnits="userSpaceOnUse">
<stop stop-color="#F88A0C"/>
<stop offset="1" stop-color="#FFE100"/>
</linearGradient>
<linearGradient id="paint6_linear_6086_8160" x1="66.5117" y1="6.59375" x2="66.5117" y2="52.9879" gradientUnits="userSpaceOnUse">
<stop stop-color="#F88A0C"/>
<stop offset="1" stop-color="#FFE100"/>
</linearGradient>
<linearGradient id="paint7_linear_6086_8160" x1="49.9957" y1="48.7119" x2="49.9957" y2="71.3813" gradientUnits="userSpaceOnUse">
<stop stop-color="#F88A0C"/>
<stop offset="1" stop-color="#FFE100"/>
</linearGradient>
</defs>
</svg>
