<svg width="52" height="60" viewBox="0 0 52 60" fill="none" xmlns="http://www.w3.org/2000/svg">
<path d="M31.7327 38.7488C31.5416 38.6835 31.3772 38.5574 31.2647 38.3898C31.1955 38.2716 31.1375 38.1472 31.0912 38.0183C31.0816 37.9851 31.0666 37.9536 31.0467 37.9253C31.0282 37.9064 31.0042 37.8938 30.9782 37.8893C30.9201 37.8761 30.8594 37.8817 30.8047 37.9053C30.7927 37.9118 30.7824 37.921 30.7747 37.9322C30.7669 37.9434 30.762 37.9563 30.7602 37.9698L30.7482 38.0143L30.7362 38.1143C30.7207 38.2232 30.6978 38.331 30.6677 38.4368L30.6177 38.5943L30.5892 38.6993C30.5468 38.8414 30.5185 38.9872 30.5047 39.1348C30.4722 39.4348 30.5127 39.7243 30.4887 40.1033C30.4777 40.3074 30.4197 40.5063 30.3192 40.6843C30.2245 40.8487 30.0966 40.9915 29.9437 41.1038C29.8176 41.196 29.6838 41.2769 29.5437 41.3458C29.4547 41.3863 29.3617 41.4228 29.2692 41.4548C29.3377 41.4833 29.4062 41.5113 29.4747 41.5438C29.9854 41.7927 30.4671 42.097 30.9112 42.4513C30.9637 42.3588 31.0242 42.2658 31.0807 42.1733C31.3058 41.8235 31.5523 41.4878 31.8187 41.1683C32.0834 40.8429 32.3766 40.5417 32.6947 40.2683C33.0477 39.9514 33.4729 39.7257 33.9332 39.6108C34.1533 39.5692 34.3796 39.5719 34.5987 39.6188C34.7727 39.6508 34.9297 39.6913 35.0792 39.7313C35.3792 39.8163 35.6517 39.9133 35.9182 40.0018C36.1847 40.0903 36.4427 40.1793 36.6727 40.2358C36.7227 40.2438 36.7897 40.2683 36.8182 40.2683C36.8727 40.2798 36.928 40.2865 36.9837 40.2883L37.3907 40.3208C37.9357 40.3608 38.4562 40.4093 38.9602 40.4173C39.2872 40.4258 39.7067 40.5828 39.9732 40.3528C39.5232 39.5178 38.1497 38.6623 37.3427 38.1663C36.9872 37.9483 36.6367 37.6373 36.2977 37.4318C35.9427 37.2543 35.5977 37.0768 35.2527 36.9073C34.9027 36.7743 34.5587 36.6413 34.2197 36.5118C34.0502 36.4473 33.8767 36.4193 33.7072 36.3708C33.6755 36.3645 33.6445 36.3549 33.6147 36.3423C33.5782 36.3223 33.5822 36.3588 33.5782 36.3828L33.5702 36.4233V36.5483C33.5702 36.8753 33.5982 37.2098 33.5942 37.5688L33.5822 37.8553C33.5695 37.9755 33.5466 38.0945 33.5137 38.2108C33.48 38.3452 33.4188 38.4712 33.334 38.5808C33.2493 38.6904 33.1428 38.7813 33.0212 38.8478C32.9607 38.8723 32.8962 38.8978 32.8317 38.9168C32.7659 38.9309 32.6989 38.9389 32.6317 38.9408C32.51 38.9528 32.3871 38.9433 32.2687 38.9128L32.1032 38.8803C32.0605 38.8681 32.0185 38.8533 31.9777 38.8358L31.7327 38.7488ZM51.7367 24.4898C51.7321 24.9503 51.6203 25.4035 51.4102 25.8133C51.0561 26.5164 50.6213 27.1758 50.1147 27.7783C49.6191 28.3916 49.0847 28.9725 48.5147 29.5173C48.2148 29.8096 47.8938 30.0793 47.5542 30.3243C47.1882 30.58 46.7893 30.7849 46.3682 30.9333C45.8882 31.1108 45.1252 31.0948 44.9357 31.5993C44.874 32.0446 44.9311 32.4982 45.1012 32.9143C45.3312 33.7898 45.7512 34.6048 45.9807 35.4763C46.0995 35.9336 46.1844 36.399 46.2347 36.8688C46.3205 37.4594 46.2525 38.0622 46.0372 38.6188C45.8825 38.9736 45.6104 39.2644 45.2667 39.4423C45.1865 39.4812 45.1044 39.5161 45.0207 39.5468C45.2875 40.0837 45.466 40.6601 45.5492 41.2538C45.6083 41.6573 45.6379 42.0645 45.6377 42.4723C45.6377 42.8633 45.6177 43.2468 45.5852 43.6423C45.5314 44.4517 45.2838 45.2362 44.8632 45.9298C44.6266 46.2945 44.3564 46.6364 44.0562 46.9508C44.2339 47.0315 44.4064 47.1232 44.5727 47.2253C44.9344 47.462 45.271 47.7351 45.5772 48.0403C46.1393 48.5985 46.6485 49.2076 47.0982 49.8598C47.5402 50.4765 47.9303 51.1287 48.2647 51.8098C48.4242 52.1919 48.5221 52.597 48.5547 53.0098C48.5921 53.3771 48.6017 53.7466 48.5832 54.1153C48.554 54.8216 48.4347 55.5213 48.2282 56.1973C48.042 56.907 47.6684 57.5535 47.1467 58.0693C46.994 58.2103 46.8198 58.3261 46.6307 58.4123C46.4509 58.4876 46.2644 58.5457 46.0737 58.5858C45.7391 58.6416 45.3991 58.6584 45.0607 58.6358C44.4693 58.589 43.8825 58.4958 43.3057 58.3573C42.3378 58.0924 41.3542 57.8888 40.3607 57.7478C40.2517 57.7358 40.1667 57.7478 40.0662 57.7438C39.9657 57.7398 39.8442 57.7683 39.7352 57.7803C39.5052 57.8128 39.2792 57.8408 39.0572 57.8733C38.8232 57.9053 38.6217 57.9378 38.3632 57.9698C38.0042 57.9938 37.6492 58.0143 37.2982 58.0383C36.9472 58.0623 36.6162 58.0183 36.2892 58.0103L36.0822 57.9988C35.3745 58.4503 34.6073 58.8007 33.8027 59.0398C33.4388 59.1467 33.0681 59.2289 32.6932 59.2858C32.5117 59.3138 32.3337 59.3463 32.1607 59.3623L31.6442 59.3988C30.901 59.4371 30.1559 59.3868 29.4247 59.2488C29.0617 59.3418 28.6177 59.4263 28.0812 59.5073C27.8352 59.5353 27.5692 59.5678 27.2867 59.6038C27.0042 59.6283 26.7017 59.6538 26.3787 59.6808C25.7372 59.7308 25.0287 59.8138 24.2287 59.8808C23.8212 59.9093 23.3897 59.9333 22.9377 59.9618C22.7037 59.9738 22.4877 60.0018 22.2237 59.9938C21.9772 59.9858 21.7312 59.9738 21.4812 59.9533C20.949 59.9127 20.4196 59.8414 19.8957 59.7398C19.5961 59.6838 19.3018 59.6028 19.0157 59.4978C18.8371 59.4272 18.6679 59.335 18.5117 59.2233C18.3957 59.1357 18.2983 59.0259 18.2252 58.9003C18.2047 58.8603 18.1847 58.8158 18.1647 58.7753C18.1582 58.757 18.154 58.7381 18.1522 58.7188C18.1442 58.6788 18.1487 58.6908 18.1442 58.6868C18.1487 58.6623 18.1847 58.6503 18.1402 58.6583L18.1042 58.6663C18.0512 58.6809 17.9972 58.6918 17.9427 58.6988C17.3897 58.8078 16.8007 58.9528 16.1757 59.0943C15.5096 59.2545 14.8326 59.3649 14.1502 59.4248C13.7508 59.459 13.3485 59.436 12.9557 59.3563C12.722 59.3067 12.4975 59.221 12.2902 59.1023C12.0744 58.9716 11.8874 58.7986 11.7402 58.5938C11.7335 58.5868 11.7281 58.5787 11.7242 58.5698C11.6922 58.5198 11.6597 58.4728 11.6317 58.4243C11.6032 58.3678 11.5952 58.3398 11.5752 58.2953C11.5472 58.2229 11.5242 58.1488 11.5062 58.0733C11.5047 58.0717 11.5035 58.0698 11.5028 58.0678C11.5021 58.0657 11.5019 58.0635 11.5022 58.0613C10.9488 58.142 10.3908 58.1865 9.83168 58.1943C9.67468 58.1943 9.52118 58.2023 9.35968 58.1983C9.19468 58.1863 9.03318 58.1703 8.87568 58.1583L8.63768 58.1338C8.54606 58.1189 8.45565 58.0974 8.36718 58.0693C8.19667 58.0156 8.03292 57.9425 7.87918 57.8513C7.58115 57.6795 7.32592 57.4424 7.13268 57.1578C7.02245 56.9975 6.94684 56.816 6.91068 56.6248C6.86863 56.4252 6.88124 56.2179 6.94718 56.0248C6.84718 56.0128 6.75318 55.9803 6.65668 55.9603C6.45461 55.9051 6.25649 55.8362 6.06368 55.7543C5.45418 55.4923 4.89368 55.1333 4.28418 54.8668C3.68034 54.6666 3.04833 54.5645 2.41218 54.5643C2.26968 54.5514 2.12808 54.5298 1.98818 54.4998C1.80016 54.4655 1.61981 54.3977 1.45568 54.2998C1.39354 54.2599 1.33543 54.214 1.28218 54.1628C1.21386 54.0914 1.15928 54.008 1.12118 53.9168C1.08312 53.8242 1.06114 53.7258 1.05618 53.6258L1.06418 53.5573C1.06418 53.5453 1.07268 53.5373 1.07668 53.5293C1.08068 53.5213 1.04018 53.5293 1.02668 53.5253C1.00268 53.5133 0.986181 53.5088 0.950181 53.4928C0.86523 53.4498 0.784103 53.3996 0.707682 53.3428C0.514823 53.2031 0.372106 53.005 0.300682 52.7778C0.260655 52.6389 0.252547 52.4927 0.276963 52.3502C0.301379 52.2076 0.357688 52.0725 0.441681 51.9548C0.478181 51.9103 0.522181 51.8498 0.554681 51.8173L0.595181 51.7813L0.623181 51.7573C0.631181 51.7488 0.647681 51.7488 0.627181 51.7408C0.615181 51.7128 0.615181 51.8053 0.566681 51.5273C0.555716 51.2404 0.642641 50.9583 0.813181 50.7273C1.03215 50.4375 1.29163 50.1807 1.58368 49.9648C1.85058 49.7608 2.12796 49.5709 2.41468 49.3958C2.55968 49.3068 2.69318 49.2223 2.85018 49.1373C3.01115 49.0547 3.17695 48.9819 3.34668 48.9193C5.23068 48.1448 7.49018 48.9558 9.19318 47.6888C9.36754 47.5541 9.53445 47.4101 9.69318 47.2573C9.87868 47.0958 10.0362 46.9263 10.2582 46.7613L10.5847 46.5113C10.7102 46.4348 10.8472 46.3613 10.9802 46.2933C11.2294 46.1864 11.4855 46.0962 11.7467 46.0233C12.1742 45.933 12.587 45.7835 12.9732 45.5793C13.3063 45.3531 13.5647 45.0331 13.7157 44.6598C13.779 44.5341 13.8505 44.4127 13.9297 44.2963L14.0587 44.1028C14.1087 44.0383 14.1717 43.9693 14.2282 43.9028C14.3547 43.7656 14.5016 43.6487 14.6637 43.5563C14.7385 43.5035 14.8219 43.4639 14.9102 43.4393L15.1642 43.3583C15.4155 43.2976 15.6723 43.2624 15.9307 43.2533C15.8568 43.0712 15.7922 42.8855 15.7372 42.6968C15.6796 42.5005 15.6378 42.2998 15.6122 42.0968C15.5837 41.8873 15.5397 41.6773 15.5272 41.4633L15.5352 40.8303C15.6763 39.2706 16.2633 37.7844 17.2262 36.5493C17.2057 36.3678 17.1857 36.1903 17.1617 36.0048C16.8832 33.8503 16.4152 31.5703 16.2617 29.0808C16.1726 27.7924 16.2335 26.4981 16.4432 25.2238L16.5322 24.7318C16.5731 24.5405 16.6298 24.3528 16.7017 24.1708C16.847 23.8066 17.0529 23.4697 17.3107 23.1743C17.8037 22.6524 18.3657 22.2004 18.9812 21.8308C19.5324 21.4975 20.0584 21.124 20.5547 20.7133C20.7841 20.5061 20.9935 20.2777 21.1802 20.0313C21.3808 19.7855 21.5628 19.5251 21.7247 19.2523C21.8777 19.0161 21.9816 18.7515 22.0301 18.4743C22.0787 18.1971 22.0709 17.9129 22.0072 17.6388C21.8518 17.025 21.6632 16.4201 21.4422 15.8268C20.8793 15.7125 20.3293 15.5423 19.8002 15.3188C19.0465 15.0142 18.3837 14.5209 17.8757 13.8863C17.5742 13.5041 17.3502 13.0668 17.2162 12.5988C17.1531 12.3885 17.1045 12.1742 17.0707 11.9573C17.0587 11.8278 17.0507 11.6988 17.0467 11.5738C17.0604 11.4452 17.0806 11.3174 17.1072 11.1908C17.174 10.957 17.2938 10.7418 17.4573 10.5618C17.6207 10.3818 17.8234 10.2419 18.0497 10.1528C18.2823 10.0541 18.5316 10.0006 18.7842 9.99531C18.6707 9.71681 18.5377 9.3498 18.3887 8.8898C18.164 8.18385 17.9979 7.46057 17.8922 6.72731C17.727 5.71017 17.8016 4.66849 18.1102 3.68531C18.2093 3.39782 18.3334 3.11959 18.4812 2.85381C18.6488 2.5802 18.8425 2.3235 19.0597 2.08731C19.1727 1.97031 19.2777 1.84131 19.4027 1.73231C19.5317 1.63231 19.6647 1.52681 19.7942 1.42131C19.9257 1.31668 20.0661 1.22366 20.2137 1.14331L20.4317 1.01431L20.5447 0.949305L20.5947 0.913305L20.6227 0.897305L20.6792 0.872805C20.9761 0.729646 21.2815 0.604747 21.5937 0.498805C21.7672 0.442305 21.9407 0.381805 22.1142 0.333305C22.2877 0.292805 22.4567 0.252305 22.6307 0.212305C22.9772 0.127305 23.3407 0.0993055 23.6997 0.0468055C24.0685 0.0131224 24.4389 -0.000397867 24.8092 0.0063053C25.58 0.0122129 26.3476 0.107006 27.0967 0.288805C27.892 0.489372 28.6552 0.800396 29.3642 1.21281C30.1141 1.67766 30.7554 2.29815 31.2447 3.03231L31.5837 3.62531C31.6642 3.83931 31.7447 4.05331 31.8297 4.26731C31.9182 4.49331 31.9507 4.67881 32.0112 4.87631L32.1727 5.46131C32.5944 7.01837 32.9164 8.60075 33.1367 10.1988C33.1772 10.5903 33.2297 10.9778 33.2577 11.3653C33.2742 11.7568 33.3077 12.1398 33.3077 12.5268C33.3037 12.7168 33.3037 12.9103 33.2997 13.1003L33.2957 13.3868L33.2917 13.4593L33.2877 13.5198L33.2837 13.5558L33.2717 13.6893C33.2432 13.8788 33.2472 14.0278 33.1987 14.2418C33.1587 14.4418 33.1222 14.6533 33.0697 14.8418C33.0197 15.0193 32.9697 15.1918 32.9082 15.3623C33.0875 15.3214 33.2697 15.2943 33.4532 15.2813C33.891 15.2302 34.333 15.2235 34.7722 15.2613C34.9902 15.2933 35.1597 15.4113 35.3612 15.4428C35.6722 15.4993 36.0312 15.4063 36.3582 15.4628C36.9128 15.5667 37.453 15.736 37.9677 15.9673C38.9993 16.4274 39.9959 16.9621 40.9497 17.5673C41.9337 18.1608 42.9387 18.8503 43.9497 19.4438C44.4137 19.7098 45.0192 19.9398 45.5997 20.1938C46.1802 20.4478 46.7857 20.7018 47.3912 20.9843C47.9967 21.2668 48.6132 21.5653 49.2267 21.9083C49.8859 22.2591 50.4974 22.6929 51.0462 23.1993C51.2065 23.3524 51.3475 23.5245 51.4662 23.7118C51.6204 23.945 51.7134 24.2132 51.7367 24.4918V24.4898ZM50.3247 25.3048C50.4492 25.0743 50.5235 24.8201 50.5427 24.5588C50.4879 24.3547 50.3708 24.1727 50.2077 24.0383C49.7344 23.6088 49.21 23.2393 48.6462 22.9383C48.0732 22.6113 47.4842 22.3208 46.8992 22.0463C46.3142 21.7718 45.7252 21.5098 45.1402 21.2598C44.5399 21.0179 43.9527 20.7445 43.3812 20.4408C42.2812 19.7833 41.3312 19.1133 40.3587 18.5163C39.4554 17.9321 38.5117 17.4129 37.5347 16.9628C37.1001 16.7612 36.6438 16.6102 36.1747 16.5128C35.9811 16.472 35.7822 16.4626 35.5857 16.4848C35.5102 16.493 35.4359 16.5098 35.3642 16.5348L35.2387 16.5958C35.2343 16.6001 35.2287 16.6029 35.2227 16.6038C35.0252 17.4108 34.8757 18.2098 34.7022 19.0038C34.5237 19.9178 34.1629 20.7864 33.6412 21.5578C33.5082 21.7353 33.3747 21.9128 33.2457 22.0863C33.1047 22.2518 32.9457 22.3928 32.8022 22.5423C32.6587 22.6918 32.5157 22.8448 32.3622 22.9778C32.2087 23.1108 32.0557 23.2323 31.9022 23.3613C31.3188 23.8107 30.7085 24.224 30.0747 24.5988C28.8842 25.3088 27.8072 25.8698 26.8952 26.4428C26.0892 26.9226 25.3394 27.4909 24.6597 28.1373C24.5097 28.2748 24.3897 28.4238 24.2597 28.5608C24.1432 28.686 24.0378 28.821 23.9447 28.9643C23.8501 29.1235 23.7769 29.2945 23.7272 29.4728C23.7432 29.9813 23.7592 30.5378 23.7632 31.1473C23.7712 31.8008 23.7672 32.5193 23.7352 33.3018C23.9558 32.7201 24.2752 32.1809 24.6792 31.7078C24.8162 31.5788 24.9532 31.4418 25.0867 31.3288C25.2202 31.2158 25.3447 31.1148 25.4702 31.0143C25.5827 30.9143 25.6917 30.8143 25.7967 30.7198C25.8967 30.6198 25.9702 30.5098 26.0592 30.4088C26.2205 30.206 26.3677 29.9923 26.4997 29.7693C26.6372 29.5638 26.7662 29.3743 26.8872 29.1963C27.1252 28.8373 27.3512 28.5463 27.5447 28.3088C27.6958 28.113 27.8618 27.9291 28.0412 27.7588C28.3152 27.4923 28.4487 27.3958 28.4807 27.4238C28.5127 27.4518 28.4367 27.6053 28.2227 27.9118C28.1177 28.0653 27.9727 28.2548 27.8192 28.5088C27.6537 28.7588 27.4642 29.0588 27.2502 29.4248C27.1412 29.6068 27.0245 29.8046 26.9002 30.0183C26.7709 30.2566 26.6252 30.4857 26.4642 30.7038C26.1377 31.2368 25.5242 31.6038 25.0967 32.0798C24.6309 32.683 24.2816 33.3677 24.0667 34.0988C23.8407 34.7914 23.6706 35.501 23.5582 36.2208C23.7582 36.1483 23.9537 36.0758 24.1517 35.9908L24.2767 35.9408L24.3047 35.9288C24.3241 35.9191 24.3429 35.9084 24.3612 35.8968C24.4462 35.8523 24.5267 35.8078 24.6112 35.7633C24.7811 35.6815 24.9454 35.5886 25.1032 35.4853C25.2448 35.3853 25.3902 35.2843 25.5392 35.1823C25.6802 35.0613 25.8252 34.9403 25.9747 34.8153C26.576 34.2498 27.1126 33.6193 27.5747 32.9353C28.108 32.2052 28.5907 31.4394 29.0192 30.6433C29.2192 30.2563 29.4027 29.8568 29.5842 29.4613C29.5766 29.4654 29.5698 29.4708 29.5642 29.4773C29.1535 29.8294 28.7815 30.2243 28.4547 30.6553C28.3132 30.8553 28.2002 31.0468 28.0752 31.2323C27.9502 31.4178 27.8252 31.5998 27.7122 31.7648C27.4822 32.0958 27.2847 32.3863 27.1072 32.6328C26.3807 33.5928 26.0617 33.9278 25.9892 33.8793C25.9167 33.8308 26.1147 33.4153 26.7522 32.3903C27.0647 31.8753 27.4762 31.1988 27.9997 30.3343C28.3383 29.8574 28.7309 29.4211 29.1697 29.0343C29.4722 28.7558 29.8032 28.4843 30.1342 28.1908C30.4342 27.4968 30.7232 26.8108 31.0417 26.1613C31.1752 25.8868 31.3122 25.6168 31.4572 25.3503C30.2027 25.9393 29.1657 26.5408 28.2902 27.0448C27.8242 27.323 27.3875 27.6475 26.9867 28.0133C26.6237 28.3323 26.3172 28.6388 26.0367 28.8888C24.9272 29.9178 24.3302 30.1073 24.3097 30.0468C24.2532 29.9538 24.7297 29.6633 25.7382 28.5823C25.9922 28.3158 26.2832 27.9933 26.6462 27.6463C27.0552 27.2375 27.5093 26.8764 27.9997 26.5698C29.2785 25.7615 30.6164 25.0508 32.0022 24.4438C32.3207 23.9593 33.7127 21.7938 34.3947 22.7653C34.3142 22.6563 34.8307 22.0433 34.8827 21.9503C35.0852 21.6057 35.2567 21.2438 35.3952 20.8688C35.5812 20.3572 35.7176 19.829 35.8027 19.2913C35.8792 18.8838 35.9077 18.5973 35.9527 18.4118C35.9977 18.2263 36.0372 18.1493 36.0777 18.1493C36.1182 18.1493 36.1582 18.2303 36.1907 18.4158C36.2367 18.7202 36.2502 19.0286 36.2312 19.3358C36.2085 19.92 36.1051 20.4983 35.9242 21.0543C35.7404 21.602 35.4927 22.1261 35.1862 22.6158C35.2878 22.6067 35.3899 22.6243 35.4826 22.6669C35.5753 22.7094 35.6553 22.7754 35.7147 22.8583C35.7993 22.989 35.8428 23.1421 35.8397 23.2978C35.8404 23.4045 35.8324 23.511 35.8157 23.6163C35.8094 23.636 35.8052 23.6563 35.8032 23.6768L35.9032 23.6568C35.9902 23.6474 36.0779 23.6461 36.1652 23.6528C36.2625 23.6633 36.3585 23.6836 36.4517 23.7133C36.547 23.7509 36.6366 23.8014 36.7182 23.8633C36.959 24.0664 37.1297 24.3402 37.2062 24.6458C37.2833 24.9465 37.3452 25.2509 37.3917 25.5578C37.4162 25.5738 37.4447 25.5858 37.4647 25.6023C37.5907 25.6894 37.6954 25.8037 37.7712 25.9368C37.8778 26.1224 37.9503 26.3256 37.9852 26.5368C38.0432 26.8659 38.0714 27.1996 38.0697 27.5338C38.0777 28.1508 38.0457 28.7158 38.0292 29.2443C38.0212 29.6718 38.0172 30.0798 38.0457 30.4443C38.6834 29.8873 39.1201 29.1357 39.2882 28.3058C39.387 27.8819 39.4464 27.4497 39.4657 27.0148C39.4737 26.8088 39.4737 26.6033 39.4657 26.4058L39.4617 26.2603L39.4432 25.9988C39.4267 25.8093 39.4107 25.6198 39.3932 25.4343C39.5387 25.4743 39.6797 25.5228 39.8167 25.5553C39.922 25.5866 40.0302 25.6069 40.1397 25.6158C40.2374 25.6153 40.3339 25.5933 40.4222 25.5513C40.603 25.4461 40.752 25.2941 40.8537 25.1113C41.0569 24.7404 41.2102 24.3443 41.3097 23.9333C41.5032 23.1668 41.5922 22.5333 41.6807 22.0488C41.8342 21.0768 41.9957 20.6813 42.0642 20.7053C42.1048 21.1669 42.088 21.6318 42.0142 22.0893C41.973 22.744 41.8895 23.3954 41.7642 24.0393C41.6748 24.5058 41.5185 24.957 41.3002 25.3788C41.1531 25.6518 40.934 25.8792 40.6667 26.0363C40.5066 26.118 40.3299 26.1622 40.1502 26.1653C40.0252 26.1693 40.0577 26.1693 40.0372 26.1693L40.0212 26.1653C40.0172 26.1693 40.0212 26.1818 40.0252 26.1898V26.2258L40.0372 26.3833C40.0452 26.5973 40.0532 26.8148 40.0412 27.0368C40.0294 27.5109 39.97 27.9826 39.8637 28.4448C39.7478 28.9624 39.5532 29.4592 39.2867 29.9178C39.0048 30.3933 38.6203 30.7999 38.1612 31.1078C38.1772 31.1523 38.1932 31.1968 38.2112 31.2333C38.2312 31.2533 38.2432 31.2893 38.2552 31.3018C38.264 31.3078 38.2711 31.3161 38.2757 31.3258L38.3257 31.3658C38.3982 31.4228 38.4707 31.4793 38.5392 31.5313C38.8914 31.7453 39.2798 31.8931 39.6852 31.9673C40.3792 31.1323 40.9762 30.3128 41.6702 29.6113C42.3163 28.9529 43.0793 28.4205 43.9202 28.0413C44.6907 27.7148 45.2877 27.5213 45.8127 27.2788C46.0707 27.1578 46.3087 27.0368 46.5227 26.9158C46.7208 26.8038 46.912 26.6799 47.0952 26.5448C47.3854 26.3318 47.6579 26.0957 47.9102 25.8388C48.0962 25.6048 48.2817 25.4388 48.3907 25.2778C48.6207 24.9673 48.7737 24.8418 48.8507 24.8743C48.9277 24.9068 48.9272 25.0923 48.8062 25.5038C48.7115 25.7643 48.5927 26.0154 48.4512 26.2538C48.2181 26.5993 47.9474 26.9179 47.6442 27.2038C47.4514 27.3831 47.2466 27.5489 47.0312 27.7003C46.8007 27.8613 46.5427 28.0188 46.2642 28.1763C45.7117 28.4828 45.0297 28.7493 44.4002 29.0518C43.696 29.3974 43.0593 29.8661 42.5202 30.4358C42.0522 30.9278 41.5802 31.5413 41.0512 32.2028C41.2047 32.2353 41.3542 32.2753 41.4952 32.3158C41.7113 31.8955 42.0089 31.5224 42.3707 31.2183C42.747 30.9208 43.1692 30.6864 43.6207 30.5243C44.4597 30.2058 45.2587 30.0683 45.9362 29.8023C46.2633 29.6922 46.5731 29.5359 46.8562 29.3383C47.1461 29.1259 47.4212 28.8941 47.6797 28.6443C48.211 28.1359 48.7107 27.5956 49.1762 27.0263C49.6229 26.4985 50.0082 25.9216 50.3247 25.3068V25.3048ZM47.3997 54.0643C47.4125 53.7547 47.403 53.4445 47.3712 53.1363C47.3469 52.8528 47.2817 52.5742 47.1777 52.3093C46.8707 51.6981 46.5145 51.1128 46.1127 50.5593C45.7033 49.9689 45.2414 49.4166 44.7327 48.9093C44.4854 48.6632 44.2136 48.4429 43.9217 48.2518C43.6927 48.0948 43.4327 47.989 43.1592 47.9413C43.1027 48.0258 43.0662 48.1063 43.0092 48.1873C42.9359 48.429 42.9044 48.6815 42.9162 48.9338C42.9122 49.0788 42.8962 49.2808 42.8882 49.4503C42.8557 49.6358 42.8277 49.8213 42.7792 50.0028C42.7147 50.1803 42.6542 50.3578 42.5897 50.5313C42.4924 50.709 42.3775 50.8766 42.2467 51.0313C41.8082 51.477 41.3316 51.8833 40.8222 52.2458C40.622 52.3939 40.4357 52.5599 40.2657 52.7418C40.1082 52.9193 39.9632 53.1453 39.8097 53.3353C39.6727 53.5488 39.5432 53.7708 39.4142 53.9853C39.2892 54.2113 39.1642 54.4353 39.0432 54.6588C38.9542 54.8163 38.8697 54.9698 38.7807 55.1273C38.9502 55.0343 39.1157 54.9453 39.2772 54.8648C40.2898 54.3693 41.3426 53.9603 42.4242 53.6423C43.3117 53.3758 44.0302 53.1983 44.5907 53.0733C45.7127 52.8233 46.2087 52.7628 46.2332 52.8433C46.2577 52.9238 45.8012 53.1378 44.7237 53.5253C44.1877 53.7228 43.4932 53.9608 42.6462 54.2838C41.6265 54.6577 40.6353 55.1054 39.6807 55.6233C39.0911 55.9362 38.5401 56.3168 38.0387 56.7573C37.9773 56.813 37.9254 56.8783 37.8852 56.9508L37.8612 56.9953C37.8612 57.0033 37.9012 56.9953 37.9177 56.9953C37.9677 56.9908 37.9862 56.9908 38.0547 56.9828C38.1232 56.9748 38.1917 56.9628 38.2607 56.9508C38.4702 56.9143 38.6842 56.8818 38.9022 56.8458C39.1362 56.8093 39.3702 56.7693 39.6122 56.7328C39.7372 56.7168 39.8462 56.6923 39.9872 56.6828C40.1308 56.6735 40.2749 56.6722 40.4187 56.6788C40.9491 56.714 41.4756 56.7937 41.9927 56.9168C42.4967 57.0298 43.0172 57.1428 43.5497 57.2598C44.0675 57.3773 44.5935 57.4555 45.1232 57.4938C45.5635 57.5667 46.0147 57.4623 46.3782 57.2033C46.7328 56.8208 46.9842 56.3543 47.1087 55.8478C47.2793 55.2684 47.377 54.6699 47.3997 54.0663V54.0643ZM45.2652 38.2523C45.4315 37.8322 45.4925 37.3778 45.4427 36.9288C45.4134 36.494 45.3568 36.0615 45.2732 35.6338C44.9422 34.0158 44.5997 32.8903 44.4862 32.1478C44.4493 31.9452 44.4251 31.7404 44.4137 31.5348C44.2927 31.5748 44.1717 31.6113 44.0587 31.6558C43.7292 31.7707 43.4212 31.9397 43.1472 32.1558C42.9488 32.3262 42.7809 32.5291 42.6507 32.7558C43.0047 32.9267 43.3396 33.1347 43.6497 33.3763C43.8032 33.4933 43.9362 33.6023 44.0612 33.6953C44.1782 33.7953 44.2672 33.8953 44.3517 33.9818C44.6827 34.3288 44.8017 34.5063 44.7552 34.5543C44.7087 34.6023 44.5132 34.5223 44.1217 34.2803C44.0217 34.2198 43.9162 34.1428 43.7872 34.0663C43.6577 33.9978 43.5167 33.9163 43.3552 33.8323C42.983 33.6212 42.5944 33.4405 42.1932 33.2918C41.9512 33.2233 41.6932 33.1503 41.4142 33.0738C41.1126 33.0049 40.8068 32.9565 40.4987 32.9288C40.1186 32.8978 39.7403 32.8477 39.3652 32.7788C38.901 32.7007 38.4551 32.538 38.0497 32.2988C37.9407 32.2223 37.8357 32.1413 37.7267 32.0608L37.6437 31.9988L37.5467 31.8943C37.4891 31.8286 37.4388 31.7568 37.3967 31.6803C37.2584 31.4203 37.1681 31.1374 37.1302 30.8453C37.0577 30.3092 37.0295 29.768 37.0457 29.2273C37.0497 28.6828 37.0737 28.1178 37.0617 27.5488C37.0589 27.277 37.0345 27.0058 36.9887 26.7378C36.974 26.6416 36.9427 26.5488 36.8962 26.4633C36.8882 26.4393 36.8762 26.4473 36.8922 26.4313L36.4562 26.0813C36.4122 25.9038 36.3797 25.7343 36.3512 25.5768C36.2373 25.8666 36.1037 26.1483 35.9512 26.4198C36.0411 26.3627 36.148 26.3385 36.2537 26.3513C36.3231 26.3843 36.3837 26.4332 36.4307 26.494C36.4777 26.5548 36.5097 26.6258 36.5242 26.7013C36.5484 26.7777 36.5673 26.8558 36.5807 26.9348C36.5927 27.0278 36.5967 27.1288 36.6047 27.2253C36.6007 27.3383 36.5967 27.4553 36.5927 27.5683C36.5887 27.6813 36.5642 27.7903 36.5482 27.9033C36.5157 28.1333 36.4837 28.3673 36.4482 28.6033C36.3957 28.8033 36.3392 28.9868 36.2827 29.1843C36.2314 29.3881 36.1645 29.5877 36.0827 29.7813C36.0062 29.9813 35.9212 30.1848 35.8407 30.3908C35.7407 30.5908 35.6407 30.7983 35.5337 31.0078C35.4297 31.2259 35.3129 31.4376 35.1837 31.6418C35.062 31.8625 34.9285 32.0765 34.7837 32.2828C34.6787 32.4283 34.5737 32.5828 34.4647 32.7328C34.7971 33.5253 35.3531 34.2039 36.0647 34.6858C36.7907 35.1818 37.6342 35.5453 38.4147 36.0053C39.1972 36.4553 39.8712 36.9553 40.5147 37.3768C40.8122 37.5805 41.1207 37.7678 41.4387 37.9378C41.5357 37.9783 41.6387 38.0223 41.7572 38.0788C41.8222 38.1153 41.8867 38.1473 41.9572 38.1918C42.1022 38.2563 42.2477 38.3128 42.3932 38.3653C42.9641 38.5988 43.5688 38.7391 44.1842 38.7808C44.3966 38.8143 44.6142 38.7818 44.8075 38.6876C45.0008 38.5934 45.1606 38.4422 45.2652 38.2543V38.2523ZM44.3857 43.5258C44.4987 42.1943 44.4357 40.7053 43.6677 39.6563H43.6392C43.4657 39.6243 43.2842 39.6038 43.1107 39.5598C42.9212 39.5098 42.7272 39.4668 42.5337 39.4143C42.5266 39.4439 42.5157 39.4725 42.5012 39.4993C42.4692 39.5493 42.4327 39.5918 42.3967 39.6443L42.3197 39.7373C42.3027 39.7667 42.2931 39.7998 42.2917 39.8338C42.2913 39.8555 42.2886 39.8771 42.2837 39.8983C42.2764 39.9609 42.2655 40.023 42.2512 40.0843C42.2187 40.2213 41.9972 40.5763 42.0457 40.7133C42.0942 40.8503 42.2457 40.7903 42.3322 40.8788C43.0177 41.6053 42.7112 41.7143 42.4167 42.6058C42.3482 42.7713 42.2592 42.9368 42.1787 43.1058C41.7732 43.8179 41.2117 44.4289 40.5362 44.8928C40.184 45.1481 39.8166 45.3819 39.4362 45.5928L40.0132 45.5328C40.8887 45.4638 41.7762 45.5828 42.6557 45.5243C43.0484 45.545 43.4406 45.4746 43.8017 45.3188C44.2497 44.9988 44.3452 44.0238 44.3857 43.5278V43.5258ZM42.6102 46.7488C42.6387 46.7208 42.6667 46.6883 42.6992 46.6603C41.8032 46.6643 40.9277 46.6803 40.1087 46.7448C39.0863 46.7963 38.0763 46.9919 37.1087 47.3258C36.7817 47.4466 36.4725 47.6107 36.1892 47.8138C36.1487 47.8543 36.1042 47.8868 36.0677 47.9308L36.0517 47.9148C35.7249 48.1661 35.4737 48.5026 35.3257 48.8873C35.201 49.2439 35.1482 49.6217 35.1702 49.9988C35.1794 50.1925 35.2023 50.3853 35.2387 50.5758C35.2519 50.671 35.2709 50.7654 35.2957 50.8583L35.3317 51.0033C35.3437 51.0533 35.3437 51.0638 35.3842 51.2093L35.5657 51.7783L35.6542 52.0563L35.6992 52.1978L35.7107 52.2303C35.7027 52.2383 35.6867 52.2383 35.6747 52.2423L35.6062 52.2583C35.2267 52.3473 34.8517 52.4358 34.4842 52.5208C34.0842 52.6053 33.7177 52.6778 33.3912 52.7668C32.8047 52.9232 32.285 53.2659 31.9102 53.7433C31.7007 54.0013 31.4947 54.2473 31.2972 54.4893C31.1924 54.6179 31.0777 54.7381 30.9542 54.8488C30.8415 54.9668 30.7187 55.0748 30.5872 55.1713C30.1027 55.5704 29.5093 55.8144 28.8842 55.8713C28.3716 55.9081 27.8567 55.8464 27.3672 55.6898C26.9829 55.5695 26.6069 55.424 26.2417 55.2543C25.5917 54.9513 25.0957 54.6853 24.7082 54.4793C23.9377 54.0638 23.6082 53.8703 23.6392 53.7853C23.6632 53.7128 24.0547 53.7613 24.8982 54.0438C25.3137 54.1848 25.8482 54.3908 26.4982 54.6248C26.8484 54.7504 27.2053 54.8567 27.5672 54.9433C27.9654 55.0419 28.3782 55.0679 28.7857 55.0203C29.2403 54.9571 29.6643 54.7551 29.9997 54.4418C30.1034 54.3622 30.1982 54.2715 30.2822 54.1713C30.3828 54.0763 30.4747 53.9723 30.5567 53.8608C30.7422 53.6183 30.9357 53.3643 31.1377 53.1023C31.2478 52.9509 31.3721 52.8103 31.5087 52.6823L31.7147 52.4768L31.9647 52.2953C32.0492 52.2348 32.1302 52.1703 32.2187 52.1178C32.3157 52.0678 32.4087 52.0208 32.5012 51.9723C32.6903 51.8823 32.8861 51.8067 33.0867 51.7463C33.4777 51.6293 33.8652 51.5463 34.2402 51.4558L34.2902 51.4358C34.2942 51.4238 34.2782 51.4033 34.2742 51.3858L34.2017 51.1193C34.1732 51.0108 34.1452 50.8978 34.1247 50.7808C34.0769 50.5425 34.0459 50.301 34.0322 50.0583C33.9932 49.527 34.0612 48.9933 34.2322 48.4888C34.3211 48.2476 34.4376 48.0174 34.5792 47.8028C33.7354 47.4579 32.9297 47.0266 32.1747 46.5158C32.05 46.4288 31.9338 46.3302 31.8277 46.2213L31.6582 46.0358C31.6073 45.9629 31.56 45.8875 31.5167 45.8098C31.4369 45.6673 31.3734 45.5164 31.3272 45.3598C31.2952 45.2428 31.2627 45.1303 31.2302 45.0168C31.1763 44.8213 31.1048 44.631 31.0167 44.4483C30.939 44.2774 30.8458 44.1141 30.7382 43.9603C30.2507 43.3766 29.6424 42.9056 28.9552 42.5798C28.3228 42.2532 27.6477 42.0167 26.9497 41.8773C26.6521 41.8192 26.3484 41.7988 26.0457 41.8168C25.8089 41.8289 25.5807 41.9089 25.3882 42.0473C24.9967 42.441 24.6662 42.891 24.4077 43.3823C24.2257 43.6498 24.0056 43.8892 23.7542 44.0928C23.5265 44.2753 23.2803 44.4335 23.0197 44.5648C22.5737 44.7842 22.1075 44.9598 21.6277 45.0893C20.9026 45.2817 20.1671 45.4319 19.4247 45.5393C18.8157 45.6318 18.3317 45.6963 17.9562 45.7393C17.2062 45.8323 16.8752 45.8643 16.8467 45.7838C16.8182 45.7033 17.1172 45.5173 17.8557 45.2793C18.2227 45.1583 18.6987 45.0293 19.2837 44.8758C19.7437 44.7508 20.2762 44.6138 20.8612 44.4363C20.549 44.5015 20.2297 44.5258 19.9112 44.5088C19.5768 44.4873 19.2489 44.4068 18.9427 44.2708L18.6197 44.3473C18.0411 44.4639 17.4492 44.5006 16.8607 44.4563C16.3984 44.4213 15.9337 44.443 15.4767 44.5208L15.3602 44.5573C15.3239 44.561 15.2899 44.5765 15.2632 44.6013C15.2019 44.6359 15.1472 44.6811 15.1017 44.7348C15.0777 44.7668 15.0517 44.7848 15.0212 44.8233L14.9362 44.9483C14.8837 45.0208 14.8232 45.1423 14.7667 45.2388L14.5732 45.5858C14.4887 45.7108 14.4157 45.8323 14.3232 45.9573C14.2222 46.0825 14.1115 46.1995 13.9922 46.3073C13.8687 46.4101 13.7393 46.5056 13.6047 46.5933C13.1263 46.8552 12.6127 47.0469 12.0797 47.1623C11.8759 47.2194 11.6755 47.2881 11.4797 47.3683C11.3987 47.4128 11.3222 47.4528 11.2412 47.4973L10.9997 47.6873C10.8382 47.7998 10.6687 47.9773 10.4997 48.1228C10.3193 48.296 10.1293 48.4589 9.93068 48.6108C9.82168 48.6918 9.74118 48.7608 9.60768 48.8488C9.48192 48.9241 9.3513 48.9909 9.21668 49.0488C8.99068 49.1488 8.78918 49.2303 8.61668 49.3193L8.52018 49.3693C8.51868 49.3709 8.51754 49.3728 8.51685 49.3749C8.51616 49.3769 8.51593 49.3791 8.51618 49.3813C8.51769 49.4316 8.52304 49.4818 8.53218 49.5313C8.54647 49.621 8.56533 49.71 8.58868 49.7978C8.70635 50.1916 8.85343 50.576 9.02868 50.9478C9.20218 51.3313 9.39568 51.7108 9.58918 52.0938C9.72667 52.4121 9.91627 52.7053 10.1502 52.9613C10.1801 52.9903 10.2155 53.0131 10.2543 53.0283C10.2931 53.0435 10.3345 53.0508 10.3762 53.0498C11.1022 53.0943 11.5762 52.4853 12.0987 52.0898C12.1552 52.0453 12.2077 52.0053 12.2682 51.9648C12.3372 51.9243 12.4097 51.8883 12.4822 51.8518C12.646 51.7802 12.8241 51.747 13.0027 51.7548C13.4694 51.8013 13.9215 51.9441 14.3302 52.1743C15.0033 52.5413 15.6577 52.9418 16.2907 53.3743C16.5937 53.5638 16.8907 53.7578 17.1662 53.8948C17.2957 53.9593 17.4662 54.0283 17.6262 54.0948C17.7862 54.1613 17.9452 54.2323 18.1022 54.2948C18.7362 54.5613 19.3522 54.8273 19.9747 55.0373C20.5877 55.2593 21.1852 55.4848 21.7782 55.6748C22.9722 56.0748 24.1032 56.4526 25.1712 56.8083C25.6889 57.0388 26.1915 57.3017 26.6762 57.5953C27.0665 57.841 27.4945 58.0209 27.9432 58.1278L27.8867 58.1238C27.9267 58.1278 27.9632 58.1358 28.0037 58.1438C28.0285 58.1462 28.0515 58.1578 28.0682 58.1763C28.0922 58.1883 28.1087 58.1478 28.1287 58.1398L28.1787 58.1078C28.2165 58.0772 28.257 58.0501 28.2997 58.0268C28.3882 57.9868 28.4732 57.9423 28.5577 57.9098C28.7257 57.8534 28.8986 57.8129 29.0742 57.7888C29.3797 57.7541 29.6881 57.7514 29.9942 57.7808C30.4914 57.8458 30.993 57.8701 31.4942 57.8533C32.346 57.6818 33.1525 57.3342 33.8622 56.8328C34.1837 56.6288 34.4875 56.398 34.7702 56.1428C34.9036 56.0303 35.0266 55.906 35.1377 55.7713C35.2462 55.6423 35.3672 55.5293 35.4642 55.3963C35.8122 54.9242 36.1329 54.4326 36.4247 53.9238C36.6827 53.4738 36.9332 53.0843 37.1427 52.7658C37.328 52.5089 37.5273 52.2624 37.7397 52.0273C38.0987 51.6803 38.2762 51.5388 38.3047 51.5673C38.3932 51.6603 37.7157 52.2533 36.8442 54.1538C36.5779 54.7049 36.2745 55.2373 35.9362 55.7473C35.8397 55.8923 35.7147 56.0258 35.5977 56.1708C35.4816 56.326 35.3519 56.4706 35.2102 56.6028C34.9117 56.896 34.589 57.1636 34.2457 57.4028C33.626 57.8604 32.9403 58.221 32.2122 58.4723C32.3212 58.4523 32.4302 58.4278 32.5392 58.4078C32.876 58.3424 33.2087 58.2575 33.5357 58.1533C34.251 57.9115 34.9309 57.5752 35.5572 57.1533C36.2537 56.6637 36.8633 56.0608 37.3607 55.3698C37.8972 54.6698 38.2482 53.6958 38.8857 52.7273C39.0632 52.4893 39.2167 52.2473 39.4222 52.0008C39.6352 51.7681 39.8673 51.5537 40.1162 51.3598C40.5634 51.0372 40.9831 50.6781 41.3712 50.2863C41.4087 50.2499 41.4401 50.2077 41.4642 50.1613L41.5447 50.0403C41.5812 49.9273 41.6212 49.8143 41.6617 49.7013C41.6937 49.5843 41.7057 49.4593 41.7302 49.3383C41.7342 49.1928 41.7462 49.0798 41.7462 48.9108L41.7502 48.6643L41.7747 48.3738C41.8002 48.1633 41.8489 47.9562 41.9197 47.7563C42.0077 47.5631 42.113 47.3782 42.2342 47.2038C42.3522 47.0488 42.4852 46.8848 42.6102 46.7488ZM41.7672 39.1703C41.7752 39.1663 41.7712 39.1583 41.7792 39.1538C41.1462 38.8988 40.5407 38.5805 39.9717 38.2038C39.2977 37.7683 38.6362 37.2883 37.9057 36.8803C37.1837 36.4568 36.3362 36.1058 35.4812 35.5303C35.2644 35.3826 35.0568 35.2218 34.8597 35.0488C34.657 34.8628 34.4682 34.6623 34.2947 34.4488C34.1241 34.2259 33.9652 33.9943 33.8187 33.7548C33.7947 33.7048 33.7687 33.6498 33.7422 33.5973C33.5162 33.8113 33.2782 34.0333 33.0397 34.2588C33.1146 34.3685 33.1668 34.4921 33.1932 34.6223C33.2321 34.8391 33.3043 35.0485 33.4072 35.2433C33.5927 35.2798 33.7782 35.3203 33.9682 35.3568C34.1577 35.4068 34.3552 35.4373 34.5407 35.5018C34.9162 35.6388 35.2992 35.7683 35.6867 35.9173C36.0577 36.0988 36.4412 36.2803 36.8287 36.4673C37.1957 36.6848 37.5787 36.9028 37.9582 37.1368C38.3217 37.3908 38.7047 37.6408 39.0717 37.9153C39.4352 38.2018 39.8182 38.4763 40.1777 38.7908C40.3587 38.9483 40.5447 39.1058 40.7277 39.2628L40.8687 39.3843L41.0747 39.6023C41.1797 39.7148 41.2842 39.8278 41.3892 39.9368C41.4012 39.9128 41.4177 39.8763 41.4257 39.8563C41.4356 39.8356 41.4437 39.814 41.4497 39.7918C41.4617 39.7313 41.4782 39.6708 41.4902 39.6143C41.5262 39.4929 41.5821 39.3784 41.6557 39.2753L41.7362 39.1943L41.7672 39.1703ZM39.8672 43.9553C40.3957 43.5923 41.7112 42.5393 41.5377 41.7603C41.5255 41.6844 41.4922 41.6135 41.4415 41.5558C41.3908 41.498 41.3248 41.4557 41.2512 41.4338C40.8437 41.2928 40.1377 41.5468 39.7702 41.5628C39.4957 41.5788 39.2202 41.5873 38.9512 41.5828C38.4012 41.5788 37.8512 41.5428 37.3092 41.5063L36.8977 41.4783C36.8152 41.4757 36.733 41.4676 36.6517 41.4538C36.5644 41.4436 36.478 41.4269 36.3932 41.4038C36.0827 41.3273 35.8122 41.2383 35.5432 41.1498C35.2742 41.0613 35.0062 40.9683 34.7522 40.8998C34.5348 40.8103 34.2947 40.7913 34.0659 40.8456C33.8372 40.8999 33.6312 41.0246 33.4772 41.2023C33.2131 41.4278 32.9708 41.6778 32.7537 41.9488C32.5203 42.232 32.3033 42.5283 32.1037 42.8363C31.9907 43.0138 31.8777 43.2033 31.7807 43.3893C31.8989 43.5677 32.0055 43.7536 32.0997 43.9458C32.2113 44.1834 32.3055 44.4287 32.3817 44.6798C32.5392 45.2408 32.5472 45.2798 32.9062 45.5598C33.6991 46.0668 34.5358 46.5019 35.4062 46.8598C36.0835 46.2086 36.848 45.6547 37.6777 45.2138C38.5112 44.7488 39.2622 44.3748 39.8672 43.9553ZM35.9997 27.5018C35.9997 27.4173 36.0042 27.2963 35.9232 27.2518C35.8855 27.2519 35.8483 27.2602 35.8142 27.2762C35.7801 27.2922 35.7499 27.3154 35.7257 27.3443C35.6705 27.3928 35.6192 27.4454 35.5722 27.5018C35.4757 27.6148 35.3907 27.7278 35.2982 27.8518C35.2412 27.9323 35.1847 28.0093 35.1327 28.0858C35.0762 28.1708 35.0237 28.2513 34.9712 28.3283C34.7612 28.6388 34.5917 28.8928 34.4587 29.0948C34.1842 29.4948 34.0312 29.6678 33.9987 29.6448C33.9662 29.6218 34.0432 29.4108 34.2447 28.9748C34.3497 28.7533 34.4827 28.4788 34.6607 28.1438C34.7047 28.0593 34.7532 27.9743 34.8017 27.8818C34.8517 27.7968 34.9017 27.7003 34.9832 27.5708C35.0072 27.5308 35.0332 27.4863 35.0637 27.4418C35.1652 27.0781 35.2893 26.7211 35.4352 26.3728C35.6058 25.9542 35.7512 25.5258 35.8707 25.0898C35.9047 24.9534 35.9276 24.8144 35.9392 24.6743L35.8667 24.4078C35.7735 24.4073 35.6809 24.4224 35.5927 24.4523C35.5882 24.4523 35.5842 24.4523 35.5842 24.4563H35.5762V24.4643C35.5522 24.5288 35.5322 24.5853 35.5077 24.6378C35.2926 25.1705 35.0447 25.6894 34.7652 26.1913C34.5646 26.5651 34.341 26.9262 34.0957 27.2723C33.8457 27.7688 33.6677 28.0593 33.5957 28.0308C33.5072 27.9988 33.5917 27.5063 33.8257 26.7358C33.9427 26.3483 34.0962 25.8968 34.2977 25.4003C34.4027 25.1503 34.5157 24.8918 34.6567 24.6258C34.8067 24.3473 35.2987 23.9198 35.3227 23.6128C35.3547 23.1408 34.9392 23.4128 34.7942 23.6453C34.7012 23.7743 34.6167 23.9238 34.5317 24.0608C34.4592 24.1898 34.3867 24.3188 34.3182 24.4483C34.2733 24.6479 34.2125 24.8435 34.1362 25.0333C33.933 25.5109 33.6849 25.9681 33.3952 26.3988C33.2577 26.6088 33.1407 26.7823 33.0362 26.9273C32.7362 27.4478 32.5157 27.7383 32.4467 27.6978C32.3742 27.6478 32.5597 27.1088 32.8827 26.2093C33.0203 25.7402 33.2045 25.2861 33.4327 24.8538C33.5257 24.6963 33.9617 24.2768 33.8042 24.0588C33.6267 23.8048 33.3042 24.2768 33.2067 24.4138C32.7429 25.1099 32.3471 25.849 32.0247 26.6208C31.4037 27.9928 30.8707 29.5708 30.0517 31.1798C29.596 32.0241 29.0772 32.8327 28.4997 33.5988C27.9747 34.3444 27.3624 35.0244 26.6757 35.6243C26.4982 35.7613 26.3287 35.8988 26.1552 36.0278C25.9657 36.1488 25.7762 36.2658 25.5907 36.3828C25.4193 36.4835 25.2412 36.5724 25.0577 36.6488L24.8037 36.7703L24.7392 36.8023L24.6892 36.8228C24.6813 36.8259 24.6733 36.8285 24.6652 36.8308L24.6327 36.8428L24.4912 36.8928C23.7612 37.1428 23.0872 37.2963 22.5027 37.4653C21.9831 37.5974 21.4807 37.7897 21.0057 38.0383C20.6577 38.2247 20.3461 38.4722 20.0857 38.7688C19.6577 39.2488 19.4887 39.6443 19.4037 39.5998C19.3537 39.5718 19.3392 39.1763 19.7227 38.5028C19.9585 38.1043 20.2761 37.7604 20.6547 37.4938C21.1456 37.1552 21.6803 36.885 22.2442 36.6908C22.2942 36.6708 22.3492 36.6503 22.3972 36.6303C22.6513 34.8118 22.7916 32.9793 22.8172 31.1433C22.8492 29.6223 22.8612 28.4318 22.8977 27.5243C22.9622 25.7003 23.0977 25.0063 23.2367 25.0063C23.3817 25.0063 23.5032 25.6963 23.6282 27.5118C23.6442 27.7743 23.6602 28.0648 23.6782 28.3753C23.7227 28.3148 23.7712 28.2503 23.8157 28.1938C23.9447 28.0403 24.0657 27.8668 24.2192 27.7138C24.9002 26.9941 25.664 26.3575 26.4947 25.8173C27.4107 25.1963 28.4877 24.5868 29.6257 23.8673C29.9847 23.6333 30.3517 23.3913 30.7147 23.1248C30.9488 22.7869 31.145 22.4242 31.2997 22.0433C31.4827 21.5982 31.6205 21.1359 31.7112 20.6633C31.8337 20.0595 31.8717 19.4416 31.8242 18.8273C31.7982 18.5401 31.733 18.2578 31.6302 17.9883C31.4567 18.4158 31.2917 18.7708 31.1622 19.0733C30.9687 19.5133 30.8152 19.8523 30.7022 20.1143C30.6202 20.3066 30.5244 20.4928 30.4157 20.6713C30.3272 20.7883 30.2427 20.8408 30.1577 20.8368C30.0727 20.8328 30.0002 20.7718 29.9437 20.6268C29.8658 20.4022 29.8383 20.1632 29.8632 19.9268C29.8835 19.6495 29.9292 19.3747 29.9997 19.1058C29.9857 19.1142 29.9708 19.1209 29.9552 19.1258C29.6224 19.2758 29.2631 19.358 28.8982 19.3678C28.2708 19.3714 27.6494 19.2458 27.0727 18.9988C26.5522 18.7988 26.0882 18.5753 25.6567 18.3773C25.1967 18.1638 24.8172 17.9698 24.4217 17.7478C23.9193 17.4747 23.452 17.1414 23.0302 16.7553C23.0907 16.9613 23.1467 17.1793 23.1952 17.4053C23.2872 17.8284 23.2983 18.2651 23.2277 18.6923C23.1475 19.1057 22.9952 19.5017 22.7777 19.8623C22.5855 20.1858 22.3698 20.4946 22.1322 20.7863C21.904 21.0886 21.6473 21.3682 21.3657 21.6213C20.8232 22.0732 20.2472 22.4832 19.6427 22.8478C19.1217 23.1555 18.6453 23.533 18.2267 23.9698C18.0549 24.1617 17.917 24.3815 17.8192 24.6198C17.7749 24.7383 17.7385 24.8595 17.7102 24.9828L17.6297 25.4303C17.4314 26.615 17.373 27.819 17.4557 29.0173C17.5892 31.3898 18.0412 33.6573 18.3152 35.8643C18.4614 36.9491 18.5422 38.0418 18.5572 39.1363C18.5737 39.6893 18.5172 40.2258 18.4932 40.7143C18.4548 41.1715 18.4682 41.6316 18.5332 42.0858C18.5767 42.4473 18.7434 42.7828 19.0052 43.0358C19.1402 43.1478 19.2921 43.2377 19.4552 43.3023C19.5361 43.3389 19.6215 43.3647 19.7092 43.3788C19.7975 43.4028 19.8882 43.4164 19.9797 43.4193C20.7925 43.4003 21.5869 43.174 22.2877 42.7618C23.0277 42.3791 23.7383 41.9421 24.4137 41.4543C24.4637 41.4183 24.5227 41.3778 24.5752 41.3413C24.6252 41.2913 24.6752 41.2448 24.7327 41.2003C24.8296 41.1239 24.9336 41.057 25.0432 41.0003C25.1482 40.9118 25.2492 40.8228 25.3537 40.7343C25.6537 40.4798 25.9537 40.2418 26.2337 39.9798C28.4567 37.8738 30.1552 35.7148 31.9467 34.1133C32.378 33.7256 32.7935 33.3518 33.1932 32.9918C33.3707 32.8058 33.5362 32.6123 33.7017 32.4268C33.8672 32.2413 34.0042 32.0313 34.1517 31.8378C34.2934 31.6484 34.4252 31.4518 34.5467 31.2488C34.6747 31.0611 34.7908 30.8656 34.8942 30.6633C35.0032 30.4698 35.1037 30.2803 35.2047 30.0948C35.2892 29.9013 35.3742 29.7113 35.4547 29.5298C35.5382 29.3519 35.6084 29.1681 35.6647 28.9798C35.7252 28.8023 35.7817 28.6298 35.8382 28.4593C35.8662 28.3338 35.8907 28.2133 35.9187 28.0923C35.9307 28.0313 35.9432 27.9748 35.9552 27.9148L35.9752 27.7773C35.9894 27.6861 35.9975 27.5941 35.9997 27.5018ZM34.1777 16.4913C33.9643 16.4745 33.75 16.4718 33.5362 16.4833C33.1047 16.5113 32.7332 16.6243 32.6607 16.7658C32.6019 16.8282 32.5676 16.9097 32.5642 16.9953C32.5794 17.1533 32.6173 17.3082 32.6767 17.4553C32.8275 17.8746 32.9159 18.3138 32.9392 18.7588C32.9675 19.4787 32.8845 20.1987 32.6932 20.8933C32.6327 21.1148 32.5642 21.3128 32.4932 21.5063L32.5177 21.4823C32.6262 21.3288 32.7352 21.1753 32.8482 21.0183C33.2866 20.3421 33.5845 19.5845 33.7242 18.7908C33.8632 18.0768 33.9962 17.2988 34.1777 16.4913ZM32.6042 37.7823L32.6082 37.5768C32.6042 37.2768 32.5677 36.9393 32.5582 36.5768L32.5542 36.4268L32.5582 36.1848C32.5582 36.1763 32.5627 36.1683 32.5627 36.1563C32.3484 35.8713 32.2195 35.5313 32.1912 35.1758C32.1912 35.1398 32.1952 35.1073 32.1952 35.0713C30.6217 36.6123 29.0452 38.6418 26.9177 40.7153C26.9081 40.7259 26.8973 40.7355 26.8857 40.7438C26.9662 40.7558 27.0512 40.7638 27.1317 40.7758C27.504 40.8394 27.8715 40.9285 28.2317 41.0423C28.4709 41.0288 28.7068 40.9799 28.9317 40.8973C29.0287 40.8528 29.1292 40.8163 29.2317 40.7638C29.3305 40.7068 29.4237 40.6407 29.5102 40.5663C29.5844 40.5057 29.6449 40.43 29.6877 40.3443C29.7306 40.2552 29.75 40.1566 29.7442 40.0578C29.7522 39.8198 29.6942 39.4648 29.7157 39.0853C29.7258 38.8857 29.7529 38.6873 29.7967 38.4923C29.8207 38.4078 29.8407 38.3188 29.8612 38.2303C29.8807 38.1591 29.8927 38.086 29.8972 38.0123L29.9177 37.8348L29.9677 37.6088C29.9917 37.5323 30.0322 37.4633 30.0602 37.3908C30.1091 37.3273 30.1645 37.2691 30.2257 37.2173C30.2942 37.1773 30.3627 37.1328 30.4357 37.0963C30.5138 37.0695 30.5932 37.0466 30.6737 37.0278C30.8394 36.9909 31.0109 36.9881 31.1777 37.0198C31.3551 37.0447 31.521 37.122 31.6542 37.2418C31.7786 37.3611 31.8763 37.5054 31.9407 37.6653C31.9665 37.7342 31.9975 37.801 32.0332 37.8653L32.0937 37.8818L32.2712 37.9423L32.3562 37.9703L32.4167 37.9788C32.5132 37.9988 32.5097 37.9908 32.5497 37.9788C32.5637 37.9701 32.5755 37.9582 32.5842 37.9442C32.5929 37.9301 32.5982 37.9142 32.5997 37.8978C32.5962 37.8873 32.5997 37.8188 32.6042 37.7823ZM31.9427 14.0823C32.0838 13.2175 32.0795 12.3352 31.9302 11.4718C31.9022 11.1083 31.8497 10.7453 31.8092 10.3718C31.5792 8.83605 31.2599 7.31498 30.8532 5.81631L30.6957 5.23131C30.6529 5.0437 30.5978 4.85913 30.5307 4.67881L30.3567 4.19831L30.1027 3.75881C29.9973 3.59922 29.8814 3.44688 29.7557 3.30281C29.6035 3.54466 29.3983 3.74879 29.1557 3.89981C28.7551 4.13998 28.3054 4.2863 27.8402 4.32781C27.0425 4.38504 26.242 4.39038 25.4437 4.34381C24.7703 4.29268 24.0932 4.36659 23.4467 4.56181C23.1874 4.64686 22.9573 4.80338 22.783 5.01336C22.6086 5.22334 22.4971 5.47826 22.4612 5.74881C22.3882 6.27331 22.5702 6.8488 22.4892 7.47181C22.4509 7.78237 22.3234 8.07518 22.1222 8.31481C21.9412 8.52579 21.7273 8.70612 21.4887 8.84881C21.0572 9.10331 20.6092 9.27281 20.5322 9.51881C20.4945 9.66782 20.5031 9.82476 20.5567 9.96881L20.6012 10.0898C20.6372 10.1663 20.6697 10.2398 20.7012 10.3153C20.7652 10.4528 20.8217 10.5858 20.8822 10.7153L20.9267 10.8153C20.9147 10.8318 20.8582 10.8193 20.8267 10.8233H20.5367C20.5647 10.8733 20.5932 10.9283 20.6132 10.9688C20.627 11.0218 20.6364 11.0758 20.6412 11.1303C20.6537 11.2188 20.6412 11.2713 20.6132 11.2873C20.5852 11.3033 20.5367 11.2753 20.4682 11.2148C20.4298 11.1763 20.3934 11.136 20.3592 11.0938C20.3092 11.0613 20.2622 11.0253 20.2092 10.9848C19.9445 10.8034 19.6358 10.6967 19.3155 10.6761C18.9953 10.6556 18.6754 10.7218 18.3897 10.8678C18.2817 10.9196 18.1868 10.9952 18.112 11.0887C18.0372 11.1823 17.9844 11.2915 17.9577 11.4083C17.9577 11.4693 17.9457 11.5298 17.9417 11.5938C17.9536 11.662 17.9616 11.7307 17.9657 11.7998C18.0034 11.9832 18.0535 12.1637 18.1157 12.3403C18.2287 12.6913 18.4037 13.0193 18.6322 13.3088C19.0514 13.8215 19.5813 14.2327 20.1822 14.5113C20.6005 14.7167 21.0317 14.8946 21.4732 15.0438C21.4715 14.6798 21.4294 14.3171 21.3477 13.9623C21.2752 13.5623 21.2837 13.3208 21.3522 13.3048C21.4287 13.2888 21.5497 13.4743 21.7352 13.8293C21.8559 14.0511 21.9563 14.2834 22.0352 14.5233C22.0597 14.6123 22.0852 14.7088 22.1037 14.8138C22.2292 15.4353 22.6687 15.6893 23.1087 16.0563C23.613 16.4673 24.1708 16.8081 24.7667 17.0693C25.1262 17.2348 25.5697 17.4163 25.9932 17.5773C26.4432 17.7468 26.9132 17.9368 27.3932 18.0898C27.8548 18.261 28.3457 18.3392 28.8377 18.3198C29.0685 18.3046 29.2937 18.2425 29.4997 18.1373C29.7107 18.0287 29.9039 17.8886 30.0727 17.7218C30.4845 17.2781 30.8433 16.788 31.1417 16.2613C31.4618 15.7203 31.7022 15.1359 31.8557 14.5263C31.8902 14.3728 31.9102 14.2313 31.9427 14.0823ZM29.3202 2.85781C29.1136 2.6695 28.8922 2.49811 28.6582 2.34531C28.0686 1.99587 27.435 1.72682 26.7742 1.54531C26.1227 1.37522 25.4542 1.27912 24.7812 1.25881C24.4502 1.22631 24.1232 1.26681 23.8007 1.26681C23.4857 1.30731 23.1632 1.31931 22.8602 1.38781C22.7072 1.41631 22.5602 1.44431 22.4047 1.47681C22.2672 1.51281 22.1262 1.55331 21.9892 1.59381C21.6937 1.67796 21.405 1.78443 21.1257 1.91231C20.1768 2.3177 19.4208 3.07349 19.0152 4.02231C18.7031 4.86222 18.5779 5.76006 18.6482 6.65331C18.6938 7.36102 18.7801 8.06551 18.9067 8.7633C18.9427 8.98131 18.9792 9.1708 19.0067 9.35231C19.0735 9.5118 19.1531 9.66563 19.2447 9.81231C19.3021 9.89896 19.3692 9.97881 19.4447 10.0503C19.7065 10.1133 19.9524 10.2301 20.1667 10.3933H20.2167L20.2532 10.3893C20.2572 10.3853 20.2652 10.3893 20.2692 10.3853L20.2572 10.3653L20.2127 10.2923L20.1927 10.2518L20.1317 10.1068C20.0419 9.8694 20.0279 9.60999 20.0917 9.36431C20.1947 9.10937 20.3848 8.89924 20.6282 8.77131C20.8342 8.64231 21.0397 8.5413 21.2252 8.4213C21.4191 8.32032 21.5869 8.1755 21.7151 7.99835C21.8433 7.82121 21.9284 7.61661 21.9637 7.40081C22.0322 6.94081 21.8387 6.37181 21.9072 5.68181C21.9469 5.31553 22.0912 4.96841 22.3227 4.68181C22.5622 4.3856 22.8773 4.15964 23.2347 4.02781C23.9506 3.79643 24.7037 3.70179 25.4547 3.74881C26.2249 3.79174 26.9971 3.78623 27.7667 3.73231C28.1412 3.7002 28.5038 3.58453 28.8277 3.39381C29.036 3.26136 29.2058 3.07653 29.3202 2.85781ZM27.2422 58.8758H27.3107C26.9392 58.7452 26.579 58.5845 26.2337 58.3953C25.7837 58.1325 25.3174 57.8987 24.8377 57.6953C23.771 57.3563 22.6438 56.9998 21.4562 56.6258C20.8562 56.4443 20.2457 56.2223 19.6167 56.0003C18.9832 55.7948 18.3497 55.5363 17.7002 55.2703C17.5387 55.2058 17.3732 55.1373 17.2117 55.0703C17.0502 55.0033 16.8852 54.9373 16.6912 54.8488C16.3282 54.6708 16.0217 54.4733 15.7067 54.2798C15.0817 53.8883 14.4642 53.4768 13.8307 53.1538C13.5617 53.0049 13.2676 52.9064 12.9632 52.8633C12.9192 52.8553 12.9552 52.8633 12.9132 52.8678C12.8975 52.8788 12.8808 52.8882 12.8632 52.8958L12.7947 52.9483C12.7547 52.9803 12.7102 53.0288 12.6657 53.0733C12.6157 53.2428 12.5687 53.4083 12.5207 53.5733C12.4802 53.7948 12.4357 54.0128 12.3912 54.2268C12.3832 54.4408 12.3632 54.6503 12.3592 54.8563C12.3752 55.0738 12.3912 55.2838 12.4037 55.4938C12.4477 55.9658 12.4882 56.4258 12.5287 56.8773C12.5487 57.0953 12.5732 57.3053 12.6052 57.4988C12.6092 57.6683 12.6723 57.831 12.7836 57.9588C12.8949 58.0867 13.0474 58.1716 13.2147 58.1988C13.4973 58.2552 13.7864 58.272 14.0737 58.2488C14.6966 58.1994 15.315 58.1036 15.9237 57.9623C16.5332 57.8333 17.1302 57.6923 17.7312 57.5873C17.8282 57.5668 18.1712 57.5148 18.4312 57.4873C18.6835 57.467 18.9367 57.4603 19.1897 57.4673L19.5572 57.4713H19.7187C19.7142 57.4833 19.7347 57.4833 19.7547 57.4873L19.7832 57.4913C19.8019 57.4938 19.8208 57.4951 19.8397 57.4953L20.0397 57.5073L20.5077 57.5193C20.2242 57.7828 19.9115 58.0129 19.5757 58.2053L19.3617 58.3143L19.2572 58.3708L19.2207 58.3913C19.2855 58.4296 19.3522 58.4645 19.4207 58.4958C19.6486 58.5827 19.8826 58.6529 20.1207 58.7058C20.6013 58.8116 21.0876 58.8898 21.5772 58.9398C21.8112 58.9683 22.0457 58.9898 22.2672 59.0003C22.4672 59.0163 22.7072 58.9963 22.9212 58.9963C23.3568 58.9883 23.7723 58.9801 24.1677 58.9718C24.9747 58.9358 25.7047 58.8913 26.3422 58.8873L27.2422 58.8758ZM17.4297 42.9103C17.4918 42.9117 17.5538 42.917 17.6152 42.9263C17.5336 42.7173 17.4715 42.5012 17.4297 42.2808C17.2322 41.1553 17.4457 40.1143 17.4177 39.1458C17.4137 38.9603 17.4057 38.7748 17.3972 38.5893C17.3472 38.6893 17.2972 38.7868 17.2522 38.8893C16.9705 39.5284 16.7986 40.2105 16.7437 40.9068L16.7397 41.4113C16.7477 41.5723 16.7842 41.7418 16.8042 41.8993C16.8451 42.2201 16.9277 42.5343 17.0497 42.8338C17.1182 42.9628 17.0997 42.9588 17.0997 42.9588H17.1042C17.1242 42.9588 17.1322 42.9348 17.1647 42.9348L17.4297 42.9103ZM11.3172 56.8603C11.2847 56.4603 11.2447 56.0578 11.2082 55.6458C11.1882 55.3918 11.1677 55.1338 11.1517 54.8713C11.1517 54.6088 11.1757 54.3388 11.1962 54.0683C11.1969 54.0492 11.1996 54.0303 11.2042 54.0118C11.1802 54.0198 11.1597 54.0323 11.1357 54.0403C10.8803 54.1304 10.6115 54.1767 10.3407 54.1773C10.0035 54.1731 9.6783 54.0519 9.42068 53.8343C9.35218 53.7778 9.29168 53.7173 9.23518 53.6608C8.99727 53.7838 8.79249 53.9624 8.63818 54.1813C8.53202 54.3245 8.46595 54.4935 8.44679 54.6708C8.42764 54.848 8.45607 55.0272 8.52918 55.1898C8.62618 55.3673 9.00118 55.5653 8.76318 55.7898C8.52518 56.0143 8.04918 55.8178 8.01668 56.3018C7.99668 56.6368 8.43218 56.8628 8.71068 56.9478C8.75118 56.9518 8.78368 56.9678 8.83568 56.9718L9.01718 56.9838L9.38868 57.0083C9.52168 57.0123 9.66718 56.9998 9.80818 56.9963C10.3135 56.9832 10.8175 56.9385 11.3172 56.8623V56.8603ZM7.89968 53.3283C8.36768 52.9123 8.99968 53.4528 8.56168 52.6138C8.36768 52.2348 8.16168 51.8393 7.97218 51.4278C7.76809 50.9994 7.59823 50.5555 7.46418 50.1003C7.42661 49.9717 7.39689 49.841 7.37518 49.7088C7.36718 49.6443 7.35518 49.5758 7.35118 49.4953C7.34318 49.3698 4.62368 49.8138 4.38568 49.8703C3.57468 50.0703 2.82018 50.1368 2.09768 50.6328C1.88018 50.7863 1.52918 51.0828 1.72668 51.3633C1.75468 51.4033 2.44518 51.7383 2.33618 51.7703C2.03618 51.8553 1.22668 51.9443 1.41618 52.4603C1.52118 52.7468 1.95668 52.6943 2.19068 52.6823C2.34418 52.6783 3.04068 52.5898 2.76768 52.9528C2.63468 53.1383 2.25918 52.9728 2.25518 53.3028C2.25118 53.9528 3.61068 53.5933 4.00218 53.7028C4.00618 53.7028 4.00618 53.7028 4.01018 53.7068H4.01868C4.02218 53.7068 4.02668 53.7068 4.02668 53.7108L4.04668 53.7148C4.51628 53.8732 4.96581 54.0858 5.38618 54.3483C5.77768 54.5783 6.11618 54.7923 6.43618 54.9483C6.63618 55.0483 7.13618 55.3518 7.36818 55.3118C7.87668 55.2268 7.38018 54.4883 7.43668 54.1698C7.48938 53.8443 7.65295 53.547 7.89968 53.3283Z" fill="black"/>
<path d="M46.4351 54.4577C46.5161 54.4497 46.6246 54.9622 46.3101 55.6962C46.1199 56.1315 45.8262 56.5138 45.4546 56.8097C45.2192 56.9946 44.9461 57.1255 44.6546 57.1932C44.4884 57.2334 44.3174 57.2502 44.1466 57.2432L43.9406 57.2227C43.8442 57.2043 43.7496 57.1774 43.6581 57.1422C43.2026 56.9607 43.0411 56.4922 42.6456 56.2667C42.2405 56.1005 41.7945 56.0611 41.3666 56.1537C40.6666 56.2747 40.2126 56.3677 40.1801 56.2747C40.1481 56.1942 40.5351 55.9357 41.2496 55.6857C41.4488 55.6175 41.6522 55.5622 41.8586 55.5202C42.0711 55.4571 42.2962 55.4488 42.5128 55.4961C42.7295 55.5434 42.9306 55.6447 43.0976 55.7907C43.2068 55.8845 43.3105 55.9847 43.4081 56.0907C43.5419 56.2655 43.7126 56.4087 43.9081 56.5102C43.9441 56.5182 44.0046 56.5467 44.0211 56.5467L44.2266 56.5707C44.3226 56.5721 44.4186 56.5641 44.5131 56.5467C44.7179 56.5034 44.9124 56.421 45.0861 56.3042C45.4029 56.082 45.6729 55.7996 45.8806 55.4732C46.2616 54.8987 46.3301 54.4487 46.4351 54.4577Z" fill="black"/>
<path d="M35.4082 53.2487C35.4607 53.3252 35.0082 53.7572 34.3192 54.5157C33.9692 54.8907 33.5522 55.3427 33.0362 55.8157C32.4702 56.352 31.8088 56.7777 31.0862 57.0707C30.3342 57.3442 29.5223 57.4097 28.7362 57.2602C28.1293 57.1284 27.5381 56.9323 26.9727 56.6752C26.4967 56.4777 26.1337 56.3282 25.8632 56.2252C25.5887 56.1282 25.4437 56.0517 25.4517 56.0077C25.4597 55.9637 25.6252 55.9472 25.9157 55.9632C26.3288 56.0145 26.7366 56.1022 27.1342 56.2252C27.6912 56.4053 28.2603 56.5457 28.8372 56.6452C29.514 56.7375 30.2031 56.6655 30.8462 56.4352C31.494 56.1684 32.0947 55.7992 32.6252 55.3417C33.1377 54.9222 33.5857 54.5067 33.9852 54.1717C34.7707 53.4852 35.3562 53.1707 35.4082 53.2487Z" fill="black"/>
<path d="M33.9558 39.6057C33.9478 39.6057 33.9438 39.6102 33.9358 39.6142H33.9158L33.9558 39.6057Z" fill="black"/>
<path d="M33.1813 49.0874L33.3708 49.4469L32.9433 49.4994C32.7818 49.5194 32.6163 49.5433 32.4468 49.5638C32.3663 49.5758 32.2858 49.5878 32.2128 49.6043L32.1203 49.6323C32.1163 49.6323 32.1123 49.6363 32.1083 49.6403C32.1043 49.6443 32.1043 49.6643 32.1043 49.6808C32.0958 49.7413 32.0958 49.8424 32.0918 49.9349C32.0833 50.1403 32.0631 50.3452 32.0313 50.5483L32.0273 50.5763C31.9953 50.7298 31.9508 50.8788 31.9273 51.0363C31.9188 51.1128 31.9028 51.1863 31.8948 51.2783L31.8788 51.4118L31.8383 51.5934C31.8075 51.6659 31.771 51.736 31.7293 51.8029C31.688 51.8528 31.6436 51.9 31.5963 51.9443C31.519 52.0137 31.4366 52.077 31.3498 52.1338C31.1848 52.2428 31.0553 52.3274 30.8743 52.4339C30.3866 52.732 29.8615 52.964 29.3128 53.1239C28.7936 53.2657 28.2569 53.333 27.7188 53.3239C26.8344 53.2909 25.9591 53.1333 25.1188 52.8558C23.7108 52.3998 22.8798 52.0534 22.8998 51.9684C22.9243 51.8714 23.8238 52.0569 25.2403 52.3879C26.0492 52.5899 26.8795 52.6943 27.7133 52.6989C28.1915 52.6884 28.6662 52.6151 29.1253 52.4808C29.6211 52.3288 30.0957 52.1146 30.5378 51.8434C30.6628 51.7669 30.8323 51.6579 30.9613 51.5729C31.0513 51.5244 31.1308 51.4586 31.1953 51.3794C31.1987 51.3561 31.204 51.3332 31.2113 51.3109L31.2278 51.1899C31.2358 51.1089 31.2558 51.0124 31.2678 50.9233C31.2963 50.7498 31.3448 50.5884 31.3848 50.4269C31.4133 50.2494 31.4348 50.0798 31.4493 49.9028C31.4533 49.8098 31.4573 49.7209 31.4698 49.5999C31.4738 49.5759 31.4818 49.5354 31.4898 49.5034C31.4978 49.4633 31.5099 49.4241 31.5258 49.3864C31.5635 49.293 31.6265 49.2119 31.7078 49.1523C31.8199 49.0747 31.9481 49.0234 32.0828 49.0024C32.1788 48.9838 32.2758 48.9703 32.3733 48.9619C32.4018 48.9619 32.4298 48.9578 32.4583 48.9578C32.0667 48.3158 31.5742 47.7411 30.9998 47.2559C30.5033 46.8244 30.1928 46.5738 30.2288 46.5213C30.2613 46.4773 30.6203 46.6144 31.2053 46.9899C32.0315 47.5097 32.7116 48.2316 33.1813 49.0874Z" fill="black"/>
<path d="M31.1596 12.2988C31.2218 12.4672 31.2443 12.6476 31.2254 12.8261C31.2065 13.0046 31.1467 13.1763 31.0506 13.3278L30.9821 13.4403L30.9741 13.4568C30.9608 13.4691 30.9486 13.4825 30.9376 13.4968C30.9287 13.5041 30.9206 13.5123 30.9136 13.5213L30.8771 13.5533C30.8291 13.6091 30.7751 13.6594 30.7161 13.7033C30.6229 13.7615 30.5257 13.8128 30.4251 13.8568L30.1591 13.9068C29.8958 13.9021 29.6336 13.871 29.3766 13.8138C29.2937 13.8035 29.21 13.8008 29.1266 13.8058C29.031 13.8188 28.9366 13.839 28.8441 13.8663C28.6479 13.9265 28.4473 13.971 28.2441 13.9993C28.1064 14.0192 27.966 13.9938 27.8441 13.9268C27.7877 13.8836 27.743 13.827 27.7141 13.7621C27.6852 13.6972 27.673 13.6261 27.6786 13.5553C27.6918 13.4152 27.7331 13.2791 27.8001 13.1553C27.9001 12.9698 27.9856 12.8853 28.0296 12.9013C28.1186 12.9378 28.0421 13.4178 28.1751 13.5348C28.3526 13.6923 28.4171 13.6073 28.5866 13.5148C28.7721 13.4148 28.8611 13.2563 29.0866 13.2038C29.4272 13.1918 29.7682 13.204 30.1071 13.2403C30.1425 13.2286 30.179 13.2204 30.2161 13.2158C30.2235 13.2083 30.2322 13.2023 30.2419 13.1982C30.2516 13.1941 30.262 13.1919 30.2726 13.1918C30.2966 13.1878 30.3571 13.1113 30.4016 13.0748L30.4341 13.0428L30.4661 12.9823C30.5134 12.9135 30.5436 12.8343 30.5541 12.7514C30.5646 12.6685 30.5552 12.5843 30.5266 12.5058C30.4502 12.3083 30.3514 12.1203 30.2321 11.9453C29.9712 11.5948 29.7617 11.2087 29.6101 10.7988C29.5118 10.4816 29.5408 10.1385 29.6911 9.84233C29.8121 9.68133 29.9011 9.60433 29.9411 9.62483C29.9811 9.64533 29.9776 9.76183 29.9291 9.95583C29.9135 10.1894 29.9594 10.423 30.0621 10.6333C30.2613 10.9693 30.4895 11.2871 30.7441 11.5833C30.9171 11.8001 31.0571 12.0412 31.1596 12.2988Z" fill="black"/>
<path d="M29.2996 44.9156C29.3859 45.132 29.4069 45.3689 29.3601 45.5971C29.3319 45.7171 29.2872 45.8325 29.2271 45.9401L29.1586 46.0656C29.1156 46.1319 29.0575 46.187 28.9891 46.2266C28.9569 46.2428 28.9235 46.2563 28.8891 46.2671L28.8166 46.2831C28.6872 46.2952 28.5567 46.2885 28.4291 46.2631C28.3291 46.2471 28.2356 46.2306 28.1511 46.2186C28.1054 46.2146 28.0594 46.2146 28.0136 46.2186C27.9976 46.3957 27.9922 46.5735 27.9976 46.7511C28.0016 46.9651 28.0096 47.1831 28.0136 47.4011V47.4621L28.0176 47.8211L27.6626 47.8046C26.8132 47.746 25.9729 47.5933 25.1571 47.3491C24.4186 47.1431 23.7731 46.9416 23.2246 46.8081C22.1551 46.5256 21.4211 46.4976 21.4211 46.3886C21.4251 46.3121 22.1271 46.1666 23.3176 46.3386C24.3986 46.4676 25.7946 46.9441 27.3281 47.0931C27.3236 46.9801 27.3196 46.8671 27.3196 46.7586C27.3135 46.5223 27.3284 46.2859 27.3641 46.0521C27.3828 45.9217 27.4488 45.8026 27.5496 45.7176L27.5776 45.6931L27.5941 45.6811L27.6386 45.6571C27.6897 45.6266 27.7455 45.6047 27.8036 45.5921C27.9426 45.5597 28.0866 45.5543 28.2276 45.5761C28.3446 45.5921 28.4456 45.6166 28.5381 45.6326C28.5862 45.6435 28.6347 45.6517 28.6836 45.6571L28.7036 45.6286C28.7721 45.5356 28.7481 45.5116 28.7801 45.4591C28.8105 45.3421 28.8063 45.2188 28.7681 45.1041C28.6708 44.8494 28.5146 44.6214 28.3121 44.4386C27.9895 44.1355 27.6397 43.8627 27.2671 43.6236C27.0011 43.4461 26.8476 43.3411 26.8671 43.2966C26.8866 43.2521 27.0671 43.2761 27.3836 43.3896C27.8349 43.5502 28.2571 43.7831 28.6336 44.0791C28.9253 44.2946 29.1551 44.5831 29.2996 44.9156Z" fill="black"/>
<path d="M11.7246 58.5732C11.7285 58.5821 11.7339 58.5902 11.7406 58.5972L11.7046 58.5527L11.7246 58.5732Z" fill="black"/>
</svg>
